<?xml version="1.0" standalone="no"?>
<!DOCTYPE svg PUBLIC "-//W3C//DTD SVG 20010904//EN"
 "http://www.w3.org/TR/2001/REC-SVG-20010904/DTD/svg10.dtd">
<svg version="1.0" xmlns="http://www.w3.org/2000/svg"
 width="512.000000pt" height="512.000000pt" viewBox="0 0 512.000000 512.000000"
 preserveAspectRatio="xMidYMid meet">
<metadata>
Created by potrace 1.14, written by Peter Selinger 2001-2017
</metadata>
<g transform="translate(0.000000,512.000000) scale(0.100000,-0.100000)"
fill="#000000" stroke="none">
<path d="M843 5035 c-64 -28 -73 -59 -73 -252 l0 -173 -238 0 c-266 0 -306 -6
-388 -63 -60 -41 -118 -125 -133 -191 -9 -38 -11 -545 -9 -2041 l3 -1990 26
-55 c45 -94 126 -160 227 -184 48 -12 429 -14 2327 -12 2088 2 2273 4 2313 19
85 33 155 96 195 177 28 57 29 171 3 330 -2 14 -7 47 -11 73 -4 27 -8 56 -9
65 -2 10 -6 38 -10 63 -4 25 -9 57 -11 70 -5 34 -13 86 -36 239 -11 74 -24
160 -29 190 -5 30 -12 73 -15 95 -3 22 -14 94 -25 160 -11 66 -22 139 -25 163
-3 24 -7 53 -10 65 -2 12 -7 40 -10 62 -6 43 -53 353 -59 395 -2 14 -9 57 -16
95 -17 108 -18 117 -25 165 -3 25 -10 70 -15 100 -5 30 -12 75 -15 100 -3 25
-10 70 -15 100 -5 30 -16 102 -25 160 -9 58 -25 166 -36 240 -11 74 -22 146
-24 160 -2 14 -11 72 -20 130 -44 286 -57 370 -66 430 -5 36 -14 90 -19 120
-5 30 -12 75 -15 100 -39 287 -62 340 -180 415 -80 51 -114 55 -449 55 l-306
0 0 168 c0 143 -3 172 -18 201 -48 89 -191 96 -251 12 -19 -27 -21 -43 -21
-205 l0 -176 -495 0 -495 0 0 170 c0 191 -6 213 -63 249 -45 27 -120 28 -164
1 -57 -34 -63 -60 -63 -250 l0 -170 -495 0 -495 0 0 173 c0 189 -5 208 -66
248 -35 23 -105 24 -151 4z"/>
</g>
</svg>
